<?xml version="1.0" standalone="no"?><!DOCTYPE svg PUBLIC "-//W3C//DTD SVG 1.1//EN" "http://www.w3.org/Graphics/SVG/1.1/DTD/svg11.dtd"><svg t="1736587064654" class="icon" viewBox="0 0 1024 1024" version="1.1" xmlns="http://www.w3.org/2000/svg" p-id="7701" xmlns:xlink="http://www.w3.org/1999/xlink" width="200" height="200"><path d="M653.124669 531.345604c113.094778 0 205.105355-91.983971 205.105355-205.052143 0-113.109104-92.010577-205.131961-205.105355-205.131961-113.067148 0-205.052143 92.02388-205.052143 205.131961C448.072527 439.361633 540.057521 531.345604 653.124669 531.345604zM653.124669 176.38115c82.641185 0 149.884682 67.245544 149.884682 149.913335 0 82.613556-67.243497 149.83147-149.884682 149.83147-82.614579 0-149.832494-67.217914-149.832494-149.83147C503.292176 243.62567 570.51009 176.38115 653.124669 176.38115z" p-id="7702"></path><path d="M931.137521 774.817778 466.050993 774.817778l92.218308-184.506201c6.820336-13.642718 1.280156-30.224372-12.349259-37.046754-13.696953-6.847965-30.237675-1.26583-37.046754 12.349259L404.311861 774.817778 91.626325 774.817778c-15.246239 0-27.608801 12.361539-27.608801 27.608801s12.362562 27.610848 27.608801 27.610848l839.511195 0c15.247262 0 27.608801-12.363585 27.608801-27.610848S946.384783 774.817778 931.137521 774.817778z" p-id="7703"></path></svg>