<?xml version="1.0" standalone="no"?><!DOCTYPE svg PUBLIC "-//W3C//DTD SVG 1.1//EN" "http://www.w3.org/Graphics/SVG/1.1/DTD/svg11.dtd"><svg t="1736586773080" class="icon" viewBox="0 0 1024 1024" version="1.1" xmlns="http://www.w3.org/2000/svg" p-id="6555" xmlns:xlink="http://www.w3.org/1999/xlink" width="200" height="200"><path d="M512 929.194667a72.874667 72.874667 0 0 1-35.157333-8.618667c-77.482667-42.24-213.674667-87.04-298.837334-98.133333l-11.946666-1.706667c-54.272-6.570667-98.986667-57.6-98.986667-112.64V208.213333c0-32.853333 12.8-62.634667 36.352-84.053333a111.36 111.36 0 0 1 86.613333-29.013333c90.965333 6.997333 228.522667 52.650667 306.346667 101.461333l9.984 5.802667a16.64 16.64 0 0 0 11.605333 0.341333l6.656-4.181333c77.738667-48.810667 215.210667-95.232 306.773334-102.997334h5.034666c30.208-2.816 61.184 7.765333 84.394667 29.44 23.552 21.589333 36.352 51.370667 36.352 83.968v499.626667c0 55.381333-44.8 105.984-99.413333 112.64l-13.568 1.536c-85.162667 11.178667-221.866667 56.234667-297.642667 98.133333A69.717333 69.717333 0 0 1 512 929.28zM180.053333 156.757333a51.285333 51.285333 0 0 0-34.816 13.226667 51.2 51.2 0 0 0-16.213333 37.973333v500.053334c0 24.32 21.162667 47.957333 44.8 51.370666l12.373333 1.621334c93.184 12.373333 236.032 59.136 318.805334 104.362666a19.456 19.456 0 0 0 11.178666 1.194667c82.773333-45.994667 226.389333-93.184 320-105.557333l13.994667-1.706667c23.637333-2.730667 44.8-26.965333 44.8-51.285333V208.554667a51.456 51.456 0 0 0-16.213333-38.4 53.845333 53.845333 0 0 0-39.765334-13.141334h-5.034666c-78.933333 6.826667-206.506667 49.493333-275.968 93.013334l-6.570667 4.522666a76.8 76.8 0 0 1-77.056 0.426667l-9.984-5.802667c-70.826667-43.434667-198.144-85.589333-279.381333-92.416h-5.034667z" p-id="6556"></path><path d="M512 894.549333a31.146667 31.146667 0 0 1-30.976-30.976V242.602667c0-17.066667 13.994667-31.061333 30.976-31.061334 17.066667 0 30.976 14.08 30.976 31.061334v620.970666a31.061333 31.061333 0 0 1-30.976 30.976zM335.957333 397.824H242.773333a31.146667 31.146667 0 0 1-30.976-31.061333c0-16.981333 13.994667-30.976 30.976-30.976h93.184a31.061333 31.061333 0 0 1 0 62.037333z m31.232 124.16H243.029333a31.146667 31.146667 0 0 1-31.061333-30.976c0-17.066667 13.994667-31.061333 31.061333-31.061333h124.16c17.066667 0 30.976 13.994667 30.976 31.061333a31.402667 31.402667 0 0 1-30.976 30.976z" p-id="6557"></path></svg>