<?xml version="1.0" standalone="no"?><!DOCTYPE svg PUBLIC "-//W3C//DTD SVG 1.1//EN" "http://www.w3.org/Graphics/SVG/1.1/DTD/svg11.dtd"><svg t="1736586684941" class="icon" viewBox="0 0 1024 1024" version="1.1" xmlns="http://www.w3.org/2000/svg" p-id="2356" xmlns:xlink="http://www.w3.org/1999/xlink" width="200" height="200"><path d="M682.666667 554.666667V213.333333H256v341.333334a85.333333 85.333333 0 0 0 85.333333 85.333333h256a85.333333 85.333333 0 0 0 85.333334-85.333333zM213.333333 128h640a85.333333 85.333333 0 0 1 85.333334 85.333333v128a85.333333 85.333333 0 0 1-85.333334 85.333334h-85.333333v128a170.666667 170.666667 0 0 1-170.666667 170.666666H341.333333a170.666667 170.666667 0 0 1-170.666666-170.666666V170.666667a42.666667 42.666667 0 0 1 42.666666-42.666667z m554.666667 85.333333v128h85.333333V213.333333h-85.333333zM85.333333 810.666667h768v85.333333H85.333333v-85.333333z" fill="#000000" p-id="2357"></path></svg>