<?xml version="1.0" standalone="no"?><!DOCTYPE svg PUBLIC "-//W3C//DTD SVG 1.1//EN" "http://www.w3.org/Graphics/SVG/1.1/DTD/svg11.dtd"><svg t="1736587600609" class="icon" viewBox="0 0 1024 1024" version="1.1" xmlns="http://www.w3.org/2000/svg" p-id="10216" xmlns:xlink="http://www.w3.org/1999/xlink" width="200" height="200"><path d="M103.768574 0c51.747919 30.135553 119.933413 51.44352 201.816884 52.356718 83.709869 0.913199 154.634958-15.524376 206.078478-47.790725 51.747919 32.26635 123.586207 49.008323 206.382878 47.790725 80.057075-0.913199 150.677765-21.916766 201.816885-51.747919 0.913199 120.237812-1.826397 234.996433-1.826398 354.929845 0 119.020214 6.39239 242.302021-24.047562 333.31748-14.915577 44.74673-37.136742 81.883472-62.401903 117.193817-24.656361 34.701546-55.400713 65.141498-88.580261 90.406658-34.397146 26.178359-73.969084 44.74673-114.454221 65.141499-34.701546 17.350773-69.403092 35.310345-102.88704 53.574316-4.565993 2.739596-10.349584 4.261593-13.697978 8.827586-18.263971-12.175981-37.745541-21.916766-57.53151-32.26635-19.785969-10.045184-39.571938-20.394768-59.357907-30.744352-20.394768-10.349584-40.789536-19.48157-60.271106-29.526753-19.48157-10.349584-36.832342-22.221165-54.183116-35.310345-67.881094-51.747919-119.933413-118.715815-150.982164-207.904875C113.813758 642.282996 109.247765 589.621879 106.508169 532.394768c-2.739596-56.313912-1.217598-116.280618-1.217598-174.725327C105.290571 238.040428 103.464174 121.151011 103.464174 1.217598 103.464174 0.608799 103.464174 0 103.768574 0z m387.196195 42.615933C419.73528 74.273484 307.411856 83.40547 216.396398 64.837099c-28.613555-5.783591-54.487515-13.393579-77.01308-23.743163-3.043995-1.521998-6.39239-3.957194-10.045184-3.652795-0.913199 110.801427 2.130797 225.560048 2.130796 332.099882 0 55.400713-2.739596 112.019025-0.608799 164.984542 2.435196 52.661118 8.218787 102.27824 22.829965 145.198573 14.306778 42.007134 33.179548 78.230678 56.922711 111.410226 35.310345 49.312723 77.926278 90.406659 132.109393 119.629013 18.263971 9.740785 37.441141 18.263971 56.922711 27.395957 37.745541 17.655172 75.795482 36.223543 113.541023 54.791915 37.441141-18.568371 75.795482-36.527943 113.236623-54.791915 19.17717-9.436385 38.65874-17.350773 56.618312-27.091558 35.919144-19.17717 66.663496-44.74673 93.755053-73.664684 40.789536-42.920333 73.969084-96.19025 94.059453-157.983354 28.309156-87.058264 22.221165-197.250892 22.221165-308.661117 0-112.323424 0.3044-222.820452 1.217599-333.31748-3.348395 0-6.69679 2.130797-10.045185 3.652795-23.438763 10.349584-48.703924 18.872771-76.70868 24.351962-66.054697 12.78478-147.32937 10.958383-209.426873-2.739596-31.96195-7.001189-60.575505-17.655172-85.536266-30.439952-5.783591 3.957194-13.393579 7.001189-21.612366 10.349583z" p-id="10217"></path><path d="M520.795922 77.621879c35.005945 3.652794 61.488704 22.221165 77.317479 48.095125 2.130797 3.348395 5.479191 8.827586 5.174792 11.567181-0.608799 2.739596-2.739596 5.174792-5.174792 4.870393-3.348395-0.3044-4.565993-4.870392-7.001189-9.131986-13.393579-23.438763-35.005945-39.571938-66.054697-45.051129 1.521998 7.001189 4.565993 14.002378 7.305589 21.307966 2.739596 7.305589 5.479191 14.915577 7.914388 21.916766 1.217598 1.217598-0.3044 3.043995 0 4.870392 5.479191-0.3044 11.871581-0.3044 10.958383 6.087991-1.217598 7.914388-25.265161 1.826397-34.092747 3.957194-0.913199 6.08799-0.3044 14.306778-0.3044 21.307966 4.870392 3.043995 28.004756-2.435196 32.570749 0.913199 1.521998 0.913199 1.826397 3.652794 1.826398 5.174792-1.217598 8.827586-24.656361 1.521998-34.092747 3.957194-1.521998 7.305589 2.130797 17.350773-5.174792 17.959572-7.001189 0.3044-4.870392-9.131986-5.174792-17.655173-8.827586-3.043995-32.570749 4.565993-34.397146-3.652794-2.435196-11.871581 25.56956-3.348395 34.092746-6.69679 0.913199-5.783591 0.913199-14.915577 0-21.003567-7.914388-3.043995-32.26635 3.957194-34.092746-3.957194-1.217598-6.08799 4.870392-7.001189 10.653983-6.39239 1.217598-1.217598-0.608799-2.739596 0-4.261593 5.783591-14.002378 10.349584-29.222354 16.133175-43.224732-37.441141 5.174792-61.184304 27.700357-72.751486 59.662306 3.957194-0.3044 10.349584-2.435196 18.263971-3.957193 8.523187-1.521998 25.87396-5.479191 21.003567 6.696789-7.001189 2.130797-14.915577 2.130797-22.221165 3.652794-7.001189 1.521998-13.697979 3.957194-19.48157 6.087991-1.217598 2.130797-1.521998 5.174792-1.826397 8.218787 6.39239-0.913199 13.08918-3.652794 21.307967-5.174792 6.08799-0.913199 24.047562-5.479191 22.221165 4.261593-0.913199 4.261593-6.08799 3.652794-10.045184 3.957194-11.567182 0.608799-26.178359 4.565993-33.788347 8.523187-0.3044 1.521998 0 5.174792 0.608799 7.001189 7.001189-1.826397 12.175981-3.348395 21.307966-4.870392 5.783591-0.608799 19.17717-4.565993 20.699168 1.826397 1.826397 9.131986-14.002378 6.39239-21.916766 7.914387-8.218787 1.521998-13.393579 3.957194-18.263971 5.479192 1.826397 4.261593 1.826397 9.740785-2.130797 10.653983-8.827586 1.826397-9.740785-18.568371-10.045184-27.091557-0.3044-12.78478 1.521998-24.047562 3.957194-32.875149 11.567182-39.571938 42.311534-64.837099 87.362663-71.533888 3.348395-4.870392 3.348395-14.306778 9.436385-13.697979 5.174792 0.913199 4.565993 10.045184 7.914388 14.306778z m-3.043995 20.394768c-1.521998-3.652794-3.043995-11.871581-7.001189-11.262783-7.305589 15.219976-12.175981 32.875149-18.872771 49.312723 3.652794 0.3044 10.653983-0.3044 14.306778 0-2.739596-14.611177 14.002378-15.524376 10.653983 0h14.915577c-4.261593-11.262782-9.740785-25.56956-14.002378-38.04994zM305.889858 115.671819c2.130797 1.826397-0.608799 4.261593 0.304399 6.087991 6.39239-1.217598 14.306778 3.652794 14.915577 7.001189 0.913199 4.261593-3.957194 9.131986-2.739596 14.915577 10.653983 6.69679 13.393579 21.612366 25.56956 27.091557 5.174792 10.045184 8.827586 24.960761 6.39239 38.65874-1.826397 10.349584-12.175981 11.567182-10.045184 25.26516 0.913199 5.783591 4.565993 17.655172 8.827586 19.785969 2.739596 1.217598 6.39239-0.3044 9.131986 1.826398 2.130797 2.739596 1.217598 8.523187-0.608799 10.958382-8.523187 1.521998-11.567182 10.349584-21.916766 7.001189-3.957194-1.521998-10.653983-5.783591-12.78478-9.131985-1.217598-2.130797-1.217598-5.174792-2.130796-7.305589-2.130797-4.870392-6.08799-7.914388-8.218788-11.567182-6.39239 1.826397-25.87396-1.217598-22.525564 8.827586 1.521998 4.565993 16.741974 2.130797 11.871581 14.002379-1.826397 3.957194-14.915577 9.740785-20.090369 10.958382-1.826397 0.3044-4.870392 0.608799-6.08799 0.3044-1.521998-0.3044-3.043995-1.826397-5.174792-2.130797-4.261593-0.913199-9.740785 0.913199-14.306778 0-2.739596-0.608799-10.349584-5.783591-13.089179-8.218787-1.826397-1.521998-5.479191-6.08799-6.087991-7.914388-2.130797-4.870392-0.608799-8.827586-5.783591-10.958382-2.130797-0.913199-5.174792-0.608799-7.609988-1.217598-4.565993-1.217598-9.740785-4.870392-13.393579-2.130797-4.870392 5.174792 2.739596 7.609988 5.174792 12.175981 2.435196 4.261593 0.913199 7.609988 1.521998 14.002378-1.521998 2.130797-4.870392 5.783591-8.827586 6.696789-5.174792 0.913199-12.48038-3.043995-19.78597-4.870392-4.870392-1.217598-11.871581-1.217598-13.089179-6.08799-0.608799-3.043995 2.435196-4.870392 3.043995-7.609989 0.913199-3.348395-0.913199-6.08799 1.217598-9.131985-3.348395-5.174792-1.826397-13.08918-2.130796-22.221166-0.3044-10.045184-0.3044-16.741974 2.130796-24.047562 0.913199-2.739596 0.913199-5.479191 1.826397-7.001189 1.217598-3.043995 10.349584-10.349584 14.002379-12.175981 8.218787-4.565993 21.916766-8.218787 36.527942-6.08799 3.043995 0.3044 5.783591 3.043995 8.827587 3.348394 5.479191 0.913199 13.08918-0.608799 18.87277 0 1.826397-0.913199 3.348395-2.130797 4.261594-3.957194 0.608799-9.436385-4.870392-13.08918-7.305589-19.785969 1.217598-9.436385-1.521998-20.394768 1.826397-29.526753 0.913199-2.435196 5.174792-9.740785 7.609988-12.480381 2.130797-2.435196 6.69679-6.08799 9.436385-6.69679 4.870392-0.913199 13.393579 1.826397 18.263972 3.652795 2.435196-1.826397 8.523187-1.826397 12.175981-0.3044z m-25.56956 19.785969c4.261593 0.913199 6.08799-4.261593 7.914387-7.001189-1.217598-2.130797-0.608799-6.08799-3.652794-6.08799 0.3044 6.08799-2.739596 8.827586-4.261593 13.089179z m-16.133175-2.130796c0.608799 0.608799 1.826397 0.608799 3.043995 0.608799 1.217598-2.739596 1.521998-6.08799 3.043996-8.218787-3.957194-1.217598-6.39239 4.565993-6.087991 7.609988z m27.395957 1.521997c-3.957194 3.043995-11.567182 6.08799-9.131985 12.78478 0.3044 0 0.913199 0 0.913198 0.3044 4.870392-1.521998 6.39239-6.69679 10.045184-10.045184 3.043995-2.739596 8.827586-4.261593 8.218788-10.349584-5.174792-1.826397-7.001189 4.565993-10.045185 7.305588z m0 20.394768c0 0.3044 0.913199 0.913199 0.913199 1.217599 1.521998 0.913199 2.739596-0.913199 4.565993-1.217599 3.652794-0.3044 6.08799 1.826397 8.218787 1.826398 2.130797-2.130797 0.3044-5.783591-2.130797-6.087991-2.739596 4.565993-13.08918-3.957194-11.567182 4.261593z m28.004756-4.261593c-2.130797-0.3044-3.043995 2.130797-3.043995 3.957194 0.3044 3.043995 5.783591 6.39239 8.827586 6.08799-1.217598-1.826397-3.652794-9.740785-5.783591-10.045184z m-38.04994 6.39239c-3.652794 1.521998-5.479191 4.565993-6.39239 8.523187 3.043995 1.217598 3.348395-3.043995 6.08799-3.348395 3.043995 1.521998 3.043995 6.08799 6.087991 7.305589 0.913199 1.217598 4.565993-0.608799 4.870392 1.217598 0 2.435196-3.652794 2.435196-6.08799 3.652794-2.739596 1.217598-7.305589 5.174792-11.262783 7.609988-7.001189 3.957194-16.133175 9.131986-5.783591 13.697979 1.217598-0.913199 0-3.043995 0.608799-4.261594 0.913199-2.130797 9.436385-8.218787 10.349584-8.218787 1.826397-0.3044 3.652794 0.913199 5.479192 0.608799 4.565993-0.608799 5.479191-4.870392 9.436385-6.696789 2.435196 0.608799 5.174792 0.913199 8.523187 0.913198 3.957194 1.521998 1.826397 8.827586 6.39239 9.740785 2.130797-3.043995 0.608799-7.001189 3.043995-9.740785-0.3044-2.739596-3.043995-3.652794-2.739596-7.001189 0.608799-1.826397 2.739596-2.130797 4.261594-2.739595 4.261593 3.043995 3.348395 10.958383 7.305588 14.002378 3.652794-2.130797 4.565993-10.045184 2.130797-14.002378-1.826397-3.043995-7.914388-4.261593-9.131986-6.69679-10.045184 0-17.959572 2.435196-25.873959 4.870392-3.043995-1.826397-4.261593-6.39239-7.305589-9.436385zM331.763817 185.37931c3.348395-1.826397 1.521998-8.523187-2.130796-8.827586-1.521998 2.739596-1.521998 8.827586 2.130796 8.827586z m-41.093935 3.957194c0.913199 2.435196 4.565993 1.826397 5.174792 4.261594-1.217598 4.870392 2.739596 7.305589 3.652794 11.567181-2.739596 3.652794-6.69679 0.3044-7.914388-2.130796-1.826397 0.3044-3.043995 1.217598-3.043995 3.348395 10.045184 0.608799 4.565993 12.175981-1.826397 14.306777-1.826397 0.913199-4.565993 0-6.69679 0.608799-2.435196 0.608799-4.565993 3.348395-7.305588 4.261594-4.261593 1.521998-7.914388 0.3044-10.349584 2.130796-1.217598 5.174792-0.608799 11.567182 3.043995 11.262783 3.652794-0.3044 3.652794-7.609988 7.305589-8.827587 5.479191 0.913199 4.870392-3.348395 7.914387-4.261593 1.521998-0.608799 3.348395 0.608799 5.479192 0 6.08799-1.826397 7.609988-9.436385 11.262782-14.002378 9.740785 1.217598 12.175981-7.305589 12.480381-14.306778-5.479191 0.913199-12.175981 1.826397-13.08918-3.043995-0.608799-3.348395 2.739596-4.870392 3.652794-8.218787-2.130797-4.565993-9.131986-0.913199-9.740784 3.043995z m-80.970274 1.217598c-1.826397 0-1.521998-2.435196-3.957194-1.826397 0.3044 3.348395-2.739596 3.348395-3.652794 5.174792 0.608799 2.435196 3.652794 2.435196 4.261593 4.565993 7.001189-0.3044 8.827586-5.174792 14.611178-6.087991-0.913199-8.218787-7.001189-4.261593-11.262783-1.826397z m21.307967-3.043995c-1.521998 2.435196 0.3044 6.69679 2.435196 7.914388 4.261593-1.826397 2.739596-8.523187-2.435196-7.914388z m22.525565 17.959572c1.826397-2.130797 0.913199-7.914388-2.130797-7.914388-1.217598 1.826397-1.826397 8.827586 2.130797 7.914388zM183.21685 210.035672c2.739596 1.521998 9.131986 2.130797 11.262782-0.608799-1.521998-3.043995-1.521998-5.479191-1.217598-8.218787-4.261593 1.826397-8.523187 3.957194-10.045184 8.827586z m72.447086 1.826397c3.652794 0.608799 10.653983 1.521998 11.567182-2.130797-1.826397-4.261593-12.175981-3.957194-11.567182 2.130797z m-49.312723 8.523187c-1.826397 0.3044-1.217598-2.435196-3.043995-2.130797-2.435196 0-2.435196 2.739596-4.870392 3.043995-0.913199-0.3044-1.521998-0.913199-3.043995-0.913198-0.913199 0.913199-2.435196 1.217598-2.130797 3.348394 2.130797-0.913199 3.043995-0.608799 4.870392 0.608799 0.608799-0.913199 0.608799-2.435196 2.130797-2.435196-0.3044 6.39239-4.261593 13.08918-11.871582 13.697979-0.608799 3.348395-3.043995 5.174792-5.174791 7.001189-1.826397 7.914388 0.608799 15.524376 8.218787 15.524376 0.608799-1.521998 0.3044-3.652794 0.608799-5.783591-2.130797-2.130797-4.261593-4.261593-3.348395-9.436386 1.217598-0.913199 2.739596-1.826397 5.174792-1.826397 3.348395-3.043995 6.08799-6.69679 8.218787-11.262782-1.521998-4.870392 3.652794-8.218787 5.783591-4.261593 0 1.217598-1.521998 3.652794 0.913199 3.348394 1.826397-0.608799 0-1.826397 0-3.043995 2.130797-2.739596 7.001189-3.043995 8.218787-6.696789-3.348395-5.174792-7.001189-0.3044-10.653984 1.217598zM185.347646 228.299643c2.435196-2.130797 3.348395-6.69679 1.826397-10.045184-4.261593 0-5.174792 8.218787-1.826397 10.045184z m56.009513 1.217598c0.3044 1.521998 3.652794 0.913199 4.870392 0.608799 0-0.608799 0.3044-0.913199 0.608799-1.217598-0.608799-0.913199-1.826397-1.826397-3.043995-2.130796 0.3044 1.826397-2.435196 0.913199-2.435196 2.739595z m37.136742 5.174792c-1.826397 0.913199-3.348395 1.217598-4.261594 3.043996-0.608799 3.043995 1.217598 8.218787-1.521997 9.131985-4.261593-3.043995-7.305589-0.608799-10.045185 2.130797-2.130797-0.3044-2.739596-2.435196-6.08799-1.826397-0.3044 1.521998-1.521998 6.69679 0.913199 7.001189 2.435196-0.608799-1.217598-4.565993 1.826397-4.565993 0.913199 2.130797 2.130797 3.348395 3.348394 4.870392-0.3044 3.348395-1.217598 9.740785 0.608799 12.175981 5.174792-1.521998 0.3044-13.08918 6.69679-13.697978 2.130797 1.217598 1.521998 5.174792 1.826397 8.218787 1.826397 0.913199 4.261593 3.652794 7.305589 3.957194 3.652794 0.3044 10.045184-0.913199 11.262782-3.348395-2.130797-1.826397-6.08799-1.826397-7.914387-3.957194-0.608799-0.608799-0.608799-2.130797-0.6088-3.348395-4.261593-3.043995-6.39239-10.045184-4.261593-16.741973 0.608799-2.130797 4.870392-5.174792 1.217598-7.305589-0.608799 1.217598-0.3044 3.043995-0.304399 4.261593z m-81.274673 25.265161v1.217598c3.957194-0.3044 4.870392 4.261593 7.914387 3.043995-0.913199-2.739596-4.565993-4.870392-7.914387-4.261593zM821.847052 247.476813c-4.261593-2.739596-9.740785 1.217598-14.002378 2.130797-5.174792 1.217598-10.045184 1.217598-12.175981 5.783591-0.913199 2.130797-0.608799 4.565993-1.217598 6.39239-3.652794 8.523187-11.871581 10.653983-18.263972 16.133175-4.261593 0.913199-9.436385-0.913199-14.915577 0-3.652794 0.608799-5.174792 3.043995-10.958383 1.826397-8.218787-1.521998-19.17717-6.69679-21.003567-11.262783-3.348395-8.827586 6.08799-10.045184 11.871582-12.48038 1.521998-8.827586-4.870392-7.305589-12.175981-8.218787-3.652794-0.608799-7.609988-1.826397-9.740785-1.521998-1.826397 0.608799-7.305589 7.305589-9.131986 11.567182-0.913199 2.130797-0.913199 4.870392-1.826397 7.001189-2.739596 5.174792-12.48038 10.653983-18.263971 10.349584-7.305589-0.3044-8.523187-6.69679-16.741974-7.609988-1.826397-3.652794-2.435196-8.827586 0-10.958383 2.130797-1.826397 7.609988-0.913199 10.045184-2.739596 3.043995-2.130797 9.740785-19.48157 7.305589-28.004756-1.521998-5.479191-8.523187-10.045184-9.740785-14.306778-0.3044-1.521998-0.608799-5.174792-0.608799-7.609988 0-10.653983 0.3044-24.960761 6.696789-32.570749 2.739596-3.348395 7.305589-4.870392 10.653984-8.218787 5.783591-6.39239 6.69679-16.437574 15.219976-18.568371-0.3044-6.08799-1.826397-10.349584-3.043995-15.524376 3.348395-3.957194 6.69679-7.914388 14.915576-7.001189 1.521998-1.826397-1.826397-4.261593 0.3044-6.08799 3.348395-1.217598 9.740785-1.521998 12.175981 0.608799 4.565993-1.826397 9.740785-2.739596 14.915577-3.652794 9.131986-1.521998 14.002378 7.609988 17.350773 13.697978 2.435196 4.261593 4.565993 6.69679 5.174791 13.393579 0.3044 3.043995 0 7.001189 0 10.958383 0 3.348395 0.3044 7.609988 0 10.045184-1.521998 8.523187-14.002378 18.263971-3.043995 24.047563 5.783591-0.608799 12.48038 1.217598 18.568371 0 3.348395-0.608799 6.39239-3.043995 8.218787-3.348395 6.69679-1.217598 14.611177-0.608799 19.785969 0 12.78478 1.826397 22.829964 10.045184 31.048752 17.350773 0.3044 5.174792 3.957194 9.436385 4.870392 15.219976 1.217598 9.131986 0.913199 23.438763-0.304399 32.26635-0.608799 4.565993-2.435196 8.827586-0.913199 15.219976 0.608799 3.043995 3.348395 4.565993 3.043995 7.001189-0.3044 5.783591-7.609988 5.783591-14.002378 7.305589-10.958383 3.043995-22.525565 8.523187-27.395957-2.435197 0.3044-6.39239-0.608799-9.740785 1.826397-14.002378 2.739596-4.870392 9.131986-6.08799 5.479192-12.175981z m-70.31629-112.019025c0.3044-2.739596-3.043995-3.348395-3.957194-6.08799-0.913199-2.435196 0.913199-5.479191-1.521998-7.609988-5.174792 3.957194-0.608799 14.611177 5.479192 13.697978z m12.78478-1.521997c1.521998 0.3044 2.739596-0.3044 3.348394-0.913199-0.608799-3.957194-2.130797-6.69679-5.479191-7.914387-0.913199 2.739596 1.826397 5.783591 2.130797 8.827586z m-34.397147-6.087991c0.3044 7.305589 6.69679 7.914388 10.653984 11.871582 3.043995 3.348395 3.957194 7.609988 7.914387 8.218787 4.565993-5.479191-3.957194-11.567182-8.523186-13.393579-2.435196-3.043995-4.870392-8.218787-10.045185-6.69679z m-14.611177 26.178359c0-0.913199-1.521998-3.348395-3.348395-3.043995-1.826397 0.3044-5.479191 9.131986-5.479191 10.045184 3.348395 0.3044 9.131986-4.261593 8.827586-7.001189z m18.263972-1.217598c-2.130797 0.3044-4.261593-2.130797-6.087991-1.826397-1.826397 0.608799-4.261593 5.479191-0.913198 6.087991 1.826397-1.217598 9.131986-2.739596 11.871581 0 2.739596-1.826397 1.521998-4.565993-0.913199-6.087991-1.826397 0-1.826397 1.521998-3.957193 1.826397z m17.350773 4.565993c-4.261593 1.826397-4.565993 7.914388-8.827587 10.045184-7.305589-3.043995-15.524376-4.870392-25.56956-4.870392-1.217598 3.043995-8.523187 4.261593-9.436385 8.218787-1.217598 4.261593 0 9.740785 2.130797 12.480381 5.174792-2.130797 5.783591-20.699168 12.78478-10.349584-0.608799 2.435196-2.739596 3.957194-3.043996 6.696789 3.043995 1.826397 1.217598 6.08799 2.739596 9.131986 5.479191 0 3.043995-7.609988 6.69679-9.131986 2.739596-0.608799 6.39239-0.608799 9.131985-1.521997 4.261593 3.043995 7.305589 8.523187 14.611178 5.783591 3.957194 3.957194 11.262782 5.479191 10.653983 12.48038 3.348395 0 5.479191-3.652794 5.174792-5.479191-0.3044-4.261593-9.131986-7.609988-13.393579-10.045185-2.435196-1.521998-4.565993-3.652794-7.001189-4.870392-3.043995-1.521998-7.001189-1.217598-7.305589-4.261593 0.3044-1.521998 3.043995-0.608799 4.261594-0.608799 3.348395-1.521998 3.348395-6.39239 6.696789-7.914388 2.130797 0.3044 3.348395 4.261593 5.479191 3.348395-0.3044-3.348395-3.043995-7.305589-5.78359-9.131986z m-52.965518 25.87396c3.043995 5.479191 6.39239-2.435196 4.261594-6.39239-3.348395 0-3.652794 3.348395-4.261594 6.39239z m32.875149 3.043995c1.217598 3.043995 3.652794 4.870392 3.652794 8.523187-1.826397 4.870392-9.131986 2.739596-13.393579 3.043995 0.913199 6.08799 2.130797 15.524376 12.480381 13.697978 3.348395 5.174792 6.08799 10.958383 11.567182 14.306778 7.609988-3.043995 7.001189 4.565993 13.393579 4.261593 3.957194 1.217598 3.652794 8.523187 7.305588 8.827587 4.261593 0.3044 4.565993-7.609988 3.043995-11.871582-3.652794-1.521998-7.001189-0.3044-10.958382-1.826397-1.826397-0.608799-3.348395-3.348395-5.174792-3.957194-3.043995-0.913199-6.08799 0.3044-8.827587-0.913198-3.652794-1.521998-6.69679-7.001189-6.696789-11.871582 0.913199-2.130797 4.870392-0.913199 5.479191-3.652794-0.3044-1.521998-1.217598-2.130797-2.739595-2.435196-1.521998 2.435196-5.783591 6.08799-8.218788 1.826397 1.826397-3.652794 4.565993-5.783591 3.957194-11.871582 1.217598-1.521998 4.261593-0.913199 4.870393-3.348394 0-3.957194-7.305589-6.69679-9.740785-2.739596z m79.143876 5.783591c5.783591 1.217598 8.218787 6.08799 14.915577 6.39239 0.608799-2.130797 4.261593-2.130797 4.565993-4.565993-1.217598-1.826397-4.261593-1.826397-3.957194-5.174792-2.739596-0.608799-1.826397 2.130797-4.261593 1.826397-3.957194-3.043995-9.436385-5.479191-11.262783 1.521998z m-11.567182 3.348395c1.826397-1.521998 3.957194-4.565993 2.739596-7.914388-5.783591-0.608799-7.609988 6.69679-2.739596 7.914388z m-19.17717 2.130796c-1.826397 1.217598-3.348395 5.783591-1.217598 7.914388 4.261593 0.913199 4.565993-7.305589 1.217598-7.914388z m57.53151 12.480381c2.739596 1.826397 7.914388 1.217598 11.567182 0.304399-1.217598-5.174792-5.479191-7.305589-10.045184-9.131985 0 2.739596-0.3044 5.479191-1.521998 8.827586z m-72.142687 0.608799c1.521998 2.435196 7.914388 2.130797 10.958383 1.217598 1.217598-6.39239-10.653983-6.69679-10.958383-1.217598z m49.921522 8.827586c2.130797 2.739596 6.08799 3.652794 8.218787 6.087991-0.3044 0.913199-0.913199 2.130797 0 3.043995 2.739596-0.3044 1.217598-2.130797 0.913199-3.957194 6.69679-4.870392 5.783591 6.69679 8.523187 10.958383 1.826397 2.739596 4.261593 3.043995 5.479191 5.174792 1.521998 0.3044 3.348395 0.608799 4.870392 0.913198 3.652794 6.69679-6.08799 9.740785-2.130796 16.133175 9.740785 1.217598 11.262782-16.133175 3.957194-18.87277 0-1.521998-0.608799-2.130797-0.913199-3.043996-7.305589-0.913199-12.48038-8.523187-11.871582-14.306777 1.521998 3.348395 4.261593 0.608799 7.00119 2.130796-0.3044-1.826397-1.521998-2.739596-3.043996-3.348394-1.217598 0-1.826397 0.913199-3.043995 0.913198-1.217598-0.913199-1.826397-2.435196-3.957194-3.043995-1.826397 0-1.521998 2.435196-3.957194 2.130797-2.739596-2.435196-7.609988-6.08799-10.045184-0.913199z m32.26635 8.523187c2.435196-2.435196 1.521998-9.436385-2.130797-9.740785-2.130797 2.739596-1.521998 8.523187 2.130797 9.740785z m-61.488704 1.521997c0.913199 0.913199 2.739596 0.913199 4.870392 0.913199 0-0.608799 0-0.913199 0.608799-1.521998-1.826397-0.913199-5.479191-3.652794-5.479191 0.608799z m-31.048752 9.131986c-0.913199 4.261593 0 7.609988-0.608799 12.175981-2.130797 2.130797-4.565993 3.652794-4.261593 7.305589-2.130797 2.130797-7.001189 1.826397-8.218787 4.870392 5.479191 3.043995 15.219976 3.348395 18.87277-1.521998 0.608799-3.043995-0.608799-7.914388 2.739596-8.218787 5.479191 1.217598 0.608799 12.48038 6.08799 13.697979 1.521998-2.739596 0.913199-9.740785 0-12.175981 2.130797-1.217598 2.130797-4.261593 4.870393-4.870392 0.3044 1.521998-0.913199 4.565993 0.913198 4.565992 1.826397-0.913199 1.521998-5.479191 0.608799-7.001189-3.652794-0.913199-3.652794 1.826397-6.696789 1.826397-1.521998-4.261593-6.08799-4.565993-10.045184-2.130796-1.521998-2.739596-0.608799-5.479191-0.913199-9.436385-3.348395-1.217598-4.261593-4.565993-5.479191-6.69679-1.826397 3.348395 0.913199 5.783591 2.130796 7.609988z m72.447087 26.178359c3.043995-0.913199 5.479191-2.739596 7.609988-4.261593-2.739596-1.826397-7.609988 0.608799-7.609988 4.261593z" p-id="10218"></path><path d="M597.504602 149.155767c2.739596-0.3044 3.348395-3.348395 7.001189-3.043995 5.479191 0.3044 6.69679 15.219976 7.305589 22.525565 0.913199 13.08918-0.3044 47.790725-13.08918 36.223543-0.3044-2.739596 0.3044-4.870392 0.913199-6.69679-6.08799-3.652794-18.568371-6.39239-29.222354-7.305588-5.479191-0.3044-13.08918 0.3044-10.958383-7.001189 1.826397-5.783591 15.524376-2.130797 21.003567-1.521998 8.827586 1.521998 13.697979 3.043995 20.394768 4.870392 1.521998-1.217598 0.608799-4.565993 1.217598-6.696789-5.174792-3.652794-22.221165-8.218787-33.483948-9.131986-5.479191-0.3044-10.958383 0.3044-10.958382-5.174792 0-2.435196 1.826397-3.348395 3.652794-4.870392 15.828775 0.3044 28.309156 3.348395 40.180737 7.305589 3.348395-10.958383-11.262782-12.48038-19.17717-14.306778-8.218787-1.826397-16.437574-2.130797-22.525565-3.043995-3.652794-1.826397-3.348395-9.131986 2.130797-9.131986 10.045184 0.3044 29.222354 3.957194 35.614744 7.001189z m-66.359096 124.195006c-9.740785-12.78478 21.307967-11.262782 25.26516-17.959572-4.261593-2.130797-10.349584-3.348395-16.133174-3.957194-5.783591-0.913199-11.871581-1.521998-17.350773-1.521997 0.3044 8.827586 4.261593 23.743163-5.174792 26.178359-6.69679 1.826397-27.091558-0.3044-28.004756-4.870393-2.130797-10.653983 15.524376-3.652794 23.438763-4.870392 2.130797-4.565993 0.3044-12.48038-1.217598-16.741974-15.524376-1.217598-30.744352 1.826397-43.529132 4.565993 3.957194 6.08799 15.219976 4.565993 16.133175 10.349584 2.130797 13.08918-20.394768-0.3044-23.438764-2.130797-12.175981-7.001189-21.307967-15.219976-30.135553-27.091558-3.348395-4.565993-10.653983-13.393579-10.045184-18.263971 0.608799-4.565993 10.653983-7.305589 17.350773-9.131986 39.267539-10.653983 84.623068-14.611177 128.1522-5.783591 5.783591 1.217598 12.78478 3.348395 19.481569 5.783591 5.783591 1.826397 16.437574 4.261593 17.046374 8.218787 0.913199 5.479191-9.131986 18.263971-11.567182 21.307967-10.045184 13.393579-20.090369 21.612366-35.614745 28.613555-7.001189 3.652794-15.219976 7.305589-24.656361 7.305589z m-98.321046-52.965517c5.783591 11.262782 14.306778 19.785969 23.743162 27.395957 6.39239-2.130797 13.08918-4.261593 20.699168-5.174792-3.043995-2.739596-6.69679-4.261593-10.653983-7.305589-3.043995-2.130797-8.523187-5.479191-8.218787-10.045184 0.3044-4.870392 10.653983-7.305589 17.350772-8.827586 22.829964-5.174792 49.921522-4.565993 71.533889 0.304399 6.69679 1.521998 18.263971 3.348395 18.263971 8.827587 0 3.043995-5.174792 7.609988-7.914387 9.436385-3.652794 3.043995-7.914388 3.348395-10.349584 7.305588 8.218787 0.608799 14.306778 3.043995 21.003567 5.174792 9.740785-7.001189 17.350773-16.133175 22.525565-27.395957-41.398335-17.046373-115.671819-15.828775-157.983353 0.3044z m41.093935 7.609988c17.046373 14.915577 58.444709 14.915577 75.491082 0-20.090369-6.69679-55.096314-6.69679-75.491082 0zM221.57119 529.655172c0-0.913199-0.3044-2.130797-0.913199-3.957193-0.608799-1.826397-0.913199-3.043995-1.521998-3.348395-0.608799-1.217598-2.130797-1.826397-4.261593-2.130797-2.130797-0.3044-4.565993-0.608799-7.914388-0.608799H160.995684v-3.957194l51.747919-38.35434H179.868455c-3.652794 0-6.39239 0.3044-8.218787 0.608799-2.130797 0.3044-3.348395 0.913199-4.261594 2.130797-0.608799 0.608799-1.217598 2.130797-1.826397 4.261593-0.608799 2.130797-0.913199 3.348395-0.913198 4.261594h-3.043996V462.687277h3.043996c0.3044 0.913199 0.3044 2.130797 0.913198 3.957194 0.608799 1.826397 0.913199 3.043995 1.217598 3.652794 0.913199 1.217598 2.130797 1.826397 3.652795 2.130797 1.826397 0.3044 4.565993 0.608799 8.827586 0.608799h31.048751c1.217598 0 2.739596-0.3044 3.957194-0.913199 1.521998-0.608799 2.435196-0.913199 3.348395-1.826397 0.913199-1.217598 1.826397-2.739596 2.435196-4.261593 0.608799-1.826397 0.913199-3.348395 1.217598-4.565993h3.043995v18.263971L176.52006 514.739596h30.135553c3.652794 0 6.69679 0 8.523187-0.608799 2.130797-0.3044 3.348395-1.217598 3.957193-2.130797 0.608799-0.913199 1.217598-2.130797 1.521998-3.957194 0.3044-1.826397 0.913199-3.348395 0.913199-4.261593h3.043995v25.873959h-3.043995z m-54.791915 72.142688l-2.739595-26.178359 3.043995-0.3044c0.3044 2.130797 0.913199 4.261593 1.521997 5.783591s1.217598 2.130797 1.826398 2.130797c0.3044 0 0.608799 0 0.913198-0.3044 0.3044 0 0.608799-0.3044 0.913199-0.304399l13.697978-6.69679-2.130796-22.221165c-2.130797-0.608799-3.957194-1.217598-5.479192-1.521998-1.521998-0.3044-3.043995-0.913199-4.261593-0.913198-1.521998-0.3044-2.435196-0.3044-3.348395-0.608799h-1.826397c-1.217598 0.3044-1.826397 0.913199-2.435196 3.043995-0.3044 1.826397-0.608799 3.957194-0.608799 6.39239l-3.043996 0.304399-2.435196-23.743163 3.043995-0.304399c0.3044 0.608799 0.3044 1.826397 0.913199 3.043995 0.3044 0.913199 0.913199 1.826397 1.521998 2.739596 0.913199 1.217598 1.826397 1.826397 2.739595 2.739596 0.913199 0.608799 2.130797 0.913199 3.652795 1.521997 8.218787 2.435196 17.350773 4.870392 27.700356 7.914388 10.349584 2.739596 19.17717 5.174792 27.395958 7.609988l0.304399 3.348395-52.356718 26.482758c-0.913199 0.3044-2.130797 0.913199-2.739596 1.826398-0.608799 0.608799-1.217598 1.521998-1.826397 2.739595-0.3044 0.608799-0.608799 1.521998-0.608799 2.739596-0.3044 1.217598-0.3044 2.130797-0.3044 2.739596h-3.043995z m23.134364-27.700357l23.438763-11.871581-25.26516-7.00119 1.826397 18.872771z m52.052319 93.755053c-0.3044-0.608799-0.608799-2.130797-1.521998-3.652794s-1.521998-2.739596-2.130797-3.348395c-0.913199-0.913199-2.435196-1.217598-4.565992-1.217598s-4.870392 0.608799-7.914388 1.217598l-45.355529 10.045185-0.913199-3.652795 42.311534-48.703923-31.96195 7.001189c-3.652794 0.608799-6.08799 1.521998-7.914388 2.435196-1.826397 0.913199-3.043995 1.826397-3.652794 3.043995-0.608799 0.913199-0.913199 2.435196-0.913198 4.565993-0.3044 2.435196-0.3044 3.652794 0 4.261593l-3.043996 0.913199-5.783591-25.265161 3.043996-0.608799c0.3044 0.913199 0.913199 2.130797 1.826397 3.652795 0.913199 1.826397 1.521998 2.739596 2.130796 3.043995 0.913199 0.913199 2.435196 1.217598 4.261594 1.217598 1.826397 0 4.565993-0.3044 8.827586-1.217598l30.439952-6.69679c1.521998-0.3044 2.739596-0.913199 3.957194-1.521997 1.217598-0.913199 2.130797-1.826397 2.435196-2.435197 0.913199-1.217598 1.217598-3.043995 1.521998-4.870392 0.3044-2.130797 0.3044-3.652794 0-4.565993l3.043995-0.608799 3.957194 17.655173L194.784031 663.590963l29.222355-6.696789c3.652794-0.913199 6.39239-1.521998 8.218787-2.435197 1.826397-0.913199 3.043995-1.826397 3.348395-2.739595 0.3044-0.913199 0.608799-2.435196 0.608799-4.261594v-4.261593l3.043995-0.913199 5.479191 25.265161-2.739595 0.304399z m19.785969 37.136742c-0.608799-0.608799-1.217598-1.521998-1.826397-2.435196l-2.130797-2.130796c-0.913199-0.608799-1.826397-1.217598-2.435196-0.913199-0.913199 0-1.826397 0.3044-2.739596 0.913199l-32.570749 18.568371c-1.826397 0.913199-3.652794 1.826397-6.08799 2.130796-2.130797 0.3044-4.565993 0.3044-6.69679 0-2.435196-0.608799-4.870392-1.521998-7.305589-3.043995-2.130797-1.521998-3.957194-3.957194-5.479191-6.39239-2.435196-3.957194-3.348395-8.218787-2.435196-12.175981 0.913199-3.957194 3.348395-7.001189 7.305588-9.436385 1.521998-0.913199 3.348395-1.521998 5.479192-1.521998 1.826397 0.3044 3.348395 1.217598 4.261593 3.043995 0.608799 1.521998 0.913199 3.043995 0.608799 4.261594-0.3044 1.521998-1.217598 2.739596-2.435196 3.348394-0.913199 0.608799-1.826397 0.913199-2.739596 0.913199-0.913199 0.3044-1.826397 0.3044-2.739595 0.3044h-5.783591c-0.608799 0.913199-0.913199 2.130797-0.913199 3.957193 0 1.521998 0.608799 3.043995 1.521998 5.174792 1.217598 1.826397 2.739596 3.043995 3.957193 3.957194 1.521998 0.608799 3.348395 0.913199 4.870393 0.608799 1.521998-0.3044 3.652794-0.608799 5.783591-1.521997s4.261593-1.826397 6.696789-3.348395l28.917955-16.741974c0.913199-0.608799 1.521998-1.217598 1.826397-1.521998 0.608799-0.608799 0.608799-1.521998 0.608799-2.739595 0-0.913199-0.3044-2.130797-0.913198-3.652795-0.608799-1.217598-0.913199-2.130797-1.521998-3.043995l2.739596-1.521998 14.002378 24.047563-1.826397 0.913198z m-22.221165 72.447087L222.179989 754.91082l2.435196-1.826397c0.608799 0.608799 1.521998 1.521998 2.435196 2.739596 0.913199 0.913199 1.826397 1.826397 2.435196 2.130797 0.913199 0.608799 1.826397 0.608799 2.435196 0.608799 0.913199-0.3044 1.826397-0.608799 2.739596-1.217598l36.527943-28.004757c0.913199-0.608799 1.521998-1.217598 1.826397-1.826397 0.3044-0.608799 0.3044-1.521998 0-3.043995-0.3044-0.913199-0.608799-2.130797-1.217598-3.348395-0.608799-1.217598-1.217598-2.130797-1.521997-3.043995l2.435196-1.826397 17.350773 22.525565-2.435197 1.826397c-0.608799-0.608799-1.217598-1.521998-2.130796-2.435196-0.913199-0.913199-1.826397-1.826397-2.739596-2.130797-0.913199-0.608799-1.826397-0.913199-2.739596-0.608799-0.913199 0.3044-1.826397 0.608799-2.435196 1.217598l-36.223543 28.004756c-0.608799 0.608799-1.217598 1.217598-1.826397 2.130797-0.3044 0.913199-0.3044 1.826397-0.3044 3.043995 0.3044 0.608799 0.608799 1.521998 1.217598 2.739596s1.217598 2.435196 1.826397 3.043995l-2.739595 1.826397z m108.67063 22.525565c-0.608799-0.608799-1.826397-1.217598-3.348395-2.130797-1.521998-0.913199-2.739596-1.217598-3.652794-1.521997-1.217598-0.3044-2.739596 0.3044-4.565993 1.521997-1.521998 1.521998-3.652794 3.043995-5.783591 5.479192l-31.96195 33.483948-2.739596-2.739596 7.914388-63.9239-22.525565 23.438763c-2.435196 2.739596-4.261593 4.870392-5.479191 6.69679-0.913199 1.826397-1.521998 3.348395-1.217599 4.565992 0 1.217598 0.608799 2.435196 1.826398 4.261594 1.217598 1.826397 1.826397 3.043995 2.435196 3.652794l-2.130797 2.130797-18.87277-17.959572 2.130796-2.130797c0.608799 0.608799 1.826397 1.217598 3.348395 2.130797 1.826397 0.913199 3.043995 1.521998 3.652794 1.521997 1.521998 0 2.739596-0.3044 4.261594-1.521997 1.521998-0.913199 3.652794-2.739596 6.39239-5.783591l21.612366-22.525565c0.913199-0.913199 1.521998-2.130797 2.130797-3.348395 0.608799-1.217598 0.913199-2.435196 0.608799-3.652794 0-1.521998-0.608799-3.043995-1.521998-4.870392-0.913199-1.826397-1.521998-3.043995-2.435196-3.957194l2.130796-2.130797 13.08918 12.480381-7.305589 59.357907 20.699168-21.612366c2.435196-2.739596 4.261593-4.870392 5.479192-6.69679 0.913199-1.826397 1.217598-3.348395 1.217598-4.261593-0.3044-0.913199-0.913199-2.435196-1.826398-3.957194s-1.826397-2.739596-2.435196-3.652794l2.130797-2.130797 18.568371 17.655172-1.826397 2.130797z m35.919144 65.141498c-0.608799-0.3044-1.521998-0.608799-2.739596-1.217598s-2.130797-0.913199-2.739596-0.913198c-1.217598 0-1.826397 0-2.739596 0.608799-0.608799 0.3044-1.217598 1.217598-2.130796 2.130796l-2.739596 3.957194c-1.826397 3.043995-3.348395 4.870392-3.957194 6.087991-0.608799 1.217598-1.217598 1.826397-1.521997 2.435196-4.261593-0.608799-8.523187-1.826397-12.175981-3.043995-3.652794-1.521998-7.305589-3.043995-10.349584-5.174792-3.348395-2.435196-6.08799-5.174792-8.218787-8.523187-2.435196-3.348395-3.652794-7.001189-4.565993-10.653983-0.608799-4.261593-0.608799-8.218787 0.304399-12.480381 0.913199-4.261593 2.435196-8.523187 5.479192-12.48038 2.435196-3.957194 5.783591-7.305589 9.436385-9.740785 3.652794-2.435196 7.609988-4.261593 11.567182-5.174792 3.957194-0.913199 8.218787-0.913199 12.175981 0 4.261593 0.913199 8.218787 2.435196 11.871581 4.870392 3.043995 2.130797 5.479191 4.261593 7.001189 6.39239 1.521998 2.130797 3.043995 4.261593 3.957194 6.39239l3.043996-1.521997 3.043995 2.130796-12.175981 18.568371-3.043995-2.130796c0.913199-2.435196 1.521998-4.565993 1.826397-7.305589 0.608799-2.435196 0.913199-4.870392 0.608799-7.305588-0.3044-2.435196-0.913199-4.565993-1.826397-6.69679-0.913199-2.130797-3.043995-3.957194-5.174792-5.479191-2.739596-1.826397-5.479191-2.739596-8.218787-3.043996-2.739596-0.3044-5.783591 0-8.523187 1.217598-3.043995 0.913199-5.783591 2.739596-8.523187 5.479192-3.043995 2.435196-5.783591 5.479191-8.218787 9.131986-2.130797 3.348395-3.957194 6.69679-5.174792 10.349583-1.217598 3.348395-1.826397 7.001189-1.826397 10.045185s0.913199 6.39239 2.130797 9.131985c1.521998 2.739596 3.652794 5.174792 6.39239 7.00119 2.130797 1.521998 4.261593 2.435196 6.696789 3.043995 2.130797 0.608799 3.957194 0.913199 5.174792 0.608799 1.217598-1.217598 2.130797-2.130797 3.043995-3.652794 0.913199-1.217598 1.826397-2.435196 2.130797-3.348395l1.826397-3.043995c0.913199-0.913199 1.217598-2.130797 1.521998-3.043996 0.3044-0.913199 0.3044-2.130797-0.608799-3.043995-0.608799-0.913199-1.521998-2.130797-2.739596-3.043995-1.521998-1.217598-2.435196-2.130797-3.043995-2.435196l1.826397-3.043996 23.134364 15.524376-1.217598 2.435196z m158.592152 10.349584c-0.913199 0-1.826397 0.3044-3.652794 0.608799-1.521998 0.3044-3.043995 0.608799-3.957194 1.521998-0.913199 0.608799-1.826397 2.130797-2.130797 4.261593-0.3044 2.130797-0.608799 4.565993-0.608799 7.914388v27.395957c0 3.348395-0.608799 6.39239-2.130797 9.131986-1.521998 2.739596-3.348395 4.870392-5.783591 6.39239-2.130797 1.521998-4.870392 2.739596-7.305588 3.348394-2.739596 0.913199-4.870392 1.217598-7.305589 1.217599-3.652794 0-7.305589-0.608799-10.045184-1.521998-3.043995-0.913199-5.479191-2.435196-7.609988-3.957194-1.826397-1.826397-3.348395-3.652794-4.261594-5.783591-1.217598-2.130797-1.521998-4.565993-1.521997-6.696789v-37.136742c0-1.217598-0.3044-2.130797-0.608799-2.739596-0.3044-0.608799-0.913199-1.521998-2.130797-1.826397-0.608799-0.608799-1.521998-0.913199-2.739596-1.217598-1.217598-0.3044-2.130797-0.3044-2.739595-0.3044v-3.348395h26.178359v3.348395c-0.913199 0-1.826397 0-3.043995 0.3044s-2.130797 0.608799-2.739596 0.608799c-1.217598 0.3044-1.826397 0.913199-2.130797 1.826397-0.3044 0.913199-0.608799 1.826397-0.608799 3.043995v34.701546c0 1.521998 0.3044 3.348395 0.608799 5.174792 0.3044 1.826397 1.217598 3.652794 2.130797 5.174792 1.217598 1.521998 2.739596 3.043995 4.870392 3.957194 2.130797 0.913199 4.565993 1.826397 8.218787 1.826397 3.348395 0 6.08799-0.608799 8.218788-1.826397 2.130797-0.913199 3.957194-2.130797 5.174791-3.957194 1.217598-1.521998 2.130797-3.348395 2.739596-5.174792 0.3044-1.826397 0.608799-3.348395 0.608799-5.174792v-25.87396c0-3.348395-0.3044-6.08799-0.608799-8.218787-0.608799-2.130797-1.217598-3.348395-2.130797-4.261593-1.217598-0.608799-2.739596-1.217598-4.261593-1.826397-1.826397-0.3044-3.348395-0.608799-4.261593-0.608799v-3.348395h25.873959l-0.304399 3.043995z m73.360285-32.266349c-0.608799 0.608799-1.826397 1.217598-3.043995 2.130796-1.521998 1.217598-2.435196 2.130797-3.043995 2.739596-0.608799 0.913199-0.608799 2.739596-0.3044 4.565993 0.3044 2.130797 1.217598 4.565993 2.435196 7.609988l18.568371 42.311534-3.652794 1.826397-55.705113-32.26635 13.08918 29.831154c1.217598 3.348395 2.739596 5.783591 3.957194 7.305588 1.217598 1.826397 2.435196 2.739596 3.652794 3.043996 0.913199 0.3044 2.435196 0.3044 4.565993 0s3.652794-0.608799 4.261593-0.913199l1.217598 3.043995-23.743163 10.349584-1.217598-3.043995c0.913199-0.3044 1.826397-1.217598 3.348395-2.435196 1.521998-1.217598 2.435196-2.130797 2.739596-2.435197 0.608799-1.217598 0.608799-2.739596 0.304399-4.565992s-1.217598-4.261593-3.043995-8.218788l-12.480381-28.613555c-0.608799-1.217598-1.217598-2.435196-2.130796-3.348395-0.913199-0.913199-1.826397-1.826397-3.043996-2.130796-1.217598-0.3044-3.043995-0.608799-4.870392-0.608799-2.130797 0.3044-3.652794 0.3044-4.565993 0.913198l-1.217598-3.043995 16.437574-7.305589 51.74792 29.831154-11.871582-27.700357c-1.521998-3.348395-2.739596-5.783591-3.957194-7.609988-1.217598-1.826397-2.435196-2.739596-3.348394-2.739596-0.913199-0.3044-2.435196-0.3044-4.261594 0-1.826397 0.3044-3.348395 0.608799-4.261593 0.913199l-1.217598-3.043995 23.438763-10.045185 1.217598 3.652795z m63.315101 36.832342l-25.56956 12.48038-1.521997-2.739595c0.608799-0.3044 1.826397-0.913199 3.043995-1.826397s2.130797-1.521998 2.435196-1.826398c0.608799-0.913199 1.217598-1.826397 1.217598-2.435196 0-0.913199 0-1.826397-0.608799-2.739595l-20.394768-41.093936c-0.3044-0.913199-0.913199-1.826397-1.521998-2.130797-0.608799-0.3044-1.521998-0.608799-3.043995-0.608799-0.913199 0-2.130797 0.3044-3.348395 0.608799-1.521998 0.3044-2.435196 0.608799-3.348394 0.913199l-1.521998-2.739596 25.56956-12.480381 1.521998 2.739596c-0.913199 0.3044-1.826397 0.913199-2.739596 1.826397-0.913199 0.608799-2.130797 1.521998-2.739596 2.130797-0.913199 0.608799-1.217598 1.826397-1.217598 2.739596 0 0.608799 0.3044 1.521998 0.608799 2.435196l20.090369 41.093936c0.3044 0.913199 0.913199 1.521998 1.826397 2.130796 0.608799 0.608799 1.521998 0.608799 2.739596 0.608799 0.608799 0 1.826397-0.3044 3.043995-0.608799s2.435196-0.608799 3.348395-0.913198l2.130796 2.435196z m31.048752-99.538645c-0.608799 0.608799-1.217598 1.521998-1.826397 2.130797-0.608799 0.913199-0.913199 1.826397-1.217598 2.739596-0.3044 1.217598-0.608799 2.130797-0.3044 3.348395 0.3044 0.913199 0.3044 2.435196 0.608799 3.652794 1.521998 5.174792 3.652794 12.78478 6.69679 22.829964 3.348395 10.349584 6.39239 21.003567 9.740784 32.26635l-2.739595 2.130797c-10.653983-6.08799-20.699168-12.175981-30.439953-18.263972-9.740785-5.783591-16.437574-9.740785-19.785969-11.871581-0.913199-0.3044-1.826397-0.913199-2.739596-0.913199h-3.043995c-0.913199 0.3044-1.826397 0.3044-2.739596 0.913199-0.913199 0.3044-1.826397 0.913199-2.435196 1.217598l-2.130796-2.435196 20.394768-16.133175 2.130796 2.435196c-1.826397 1.521998-3.043995 3.043995-3.957193 3.957194-0.913199 1.217598-1.217598 2.130797-0.608799 2.739595l0.913198 0.913199c0.3044 0.3044 0.608799 0.608799 0.913199 0.608799 2.739596 1.521998 7.001189 3.957194 13.089179 7.609988 6.08799 3.957194 14.611177 8.827586 25.87396 15.524376-1.826397-5.783591-3.652794-12.48038-6.087991-20.090369s-4.261593-12.78478-5.174792-15.828775c-0.913199-2.739596-1.521998-4.565993-2.130796-5.479191-0.608799-0.913199-0.913199-1.826397-1.521998-2.130797-0.3044-0.608799-1.217598-0.913199-1.826397-0.608799-0.913199 0-1.521998 0.3044-2.739596 0.608799-0.913199 0.3044-1.826397 0.913199-3.043995 1.521998-0.913199 0.608799-1.521998 0.913199-2.435196 1.521997l-2.130797-2.435196 18.568371-14.611177 2.130797 2.130796z m70.620689-20.394768l13.39358 12.78478-33.483948 40.180738-2.435196-1.826398c0.608799-0.608799 1.217598-1.826397 2.130796-3.043995 0.608799-1.217598 1.217598-2.130797 1.217598-2.739596 0.3044-0.913199 0.3044-1.826397 0-2.435196-0.3044-0.913199-0.913199-1.521998-1.826397-2.130796l-35.005945-29.222355c-0.608799-0.608799-1.521998-0.913199-2.435196-1.217598-0.608799-0.3044-1.521998-0.3044-2.739596 0.3044-0.913199 0.3044-1.521998 0.913199-2.739596 1.826397s-1.826397 1.521998-2.739595 2.130797l-2.435197-1.826398 31.353151-37.745541 11.567182 9.740785-2.130796 2.435196c-2.130797-0.913199-4.870392-1.521998-7.914388-1.521997-3.348395 0-5.479191 0.608799-7.001189 1.521997-0.608799 0.608799-1.521998 1.521998-2.435196 2.130797-0.913199 0.913199-1.826397 2.130797-3.043995 3.348395l-6.087991 7.609988 19.17717 16.133175 4.565993-5.479192c1.521998-1.826397 2.435196-3.043995 2.739596-4.261593 0.3044-1.217598 0.3044-2.435196 0-3.348395-0.3044-1.217598-0.608799-2.130797-1.521998-3.652794-0.913199-1.217598-1.521998-2.435196-2.435196-3.348395l2.130797-2.435196 18.87277 15.828775-2.130797 2.435196c-1.217598-0.608799-2.739596-1.521998-4.261593-2.130796-1.521998-0.608799-2.739596-0.913199-3.652794-0.913199-1.521998 0-2.739596 0.3044-3.652795 0.913199-1.217598 0.608799-2.130797 1.826397-3.348394 3.348394l-4.565993 5.479192 14.611177 12.175981c1.521998 1.217598 2.739596 2.130797 3.652794 2.739596 0.913199 0.608799 2.130797 0.608799 3.043996 0.608799 0.913199-0.3044 1.826397-0.913199 3.043995-1.826398 0.913199-0.913199 2.130797-2.435196 3.652794-4.261593 0.608799-0.608799 1.521998-1.521998 2.435196-3.043995 1.217598-0.913199 1.826397-2.130797 2.435196-3.043995 0.608799-0.913199 1.217598-2.130797 1.826398-3.348395 0.608799-0.913199 0.608799-1.826397 0.608799-2.739596 0-2.130797-0.913199-4.565993-2.130797-7.609988-1.217598-3.043995-2.435196-4.870392-3.043995-6.08799l2.739595-2.435197z m52.661118-59.053507l-8.218787 14.611177c-7.001189 0.608799-13.08918 1.217598-18.263971 1.826397-5.174792 0.608799-10.653983 1.217598-16.437575 2.130797l-3.043995 5.783591 17.655172 9.436385c0.913199 0.608799 1.826397 0.913199 2.739596 0.913198 0.913199 0 1.826397-0.3044 2.739596-0.913198 0.608799-0.3044 0.913199-1.217598 1.826397-2.130797 0.913199-0.913199 1.521998-2.130797 1.826397-3.043995l2.739596 1.521998-12.78478 23.438763-2.739596-1.521998c0.3044-0.608799 0.608799-1.521998 1.217598-3.043995 0.608799-1.217598 0.608799-2.130797 0.913199-2.435196 0-0.913199 0-1.826397-0.608799-2.435196-0.608799-0.608799-1.217598-1.217598-2.130797-1.826397L760.967147 721.426873l-2.739596-0.913199c-0.913199-0.3044-1.826397 0.3044-2.739596 0.913199-0.608799 0.608799-1.217598 1.521998-2.130796 2.435196-0.913199 0.913199-1.521998 1.826397-1.826397 2.435196l-2.739596-1.521997 14.002378-25.87396c1.217598-2.435196 2.739596-4.565993 4.261593-6.087991 1.521998-1.826397 3.348395-3.348395 5.479192-4.565992 1.826397-1.217598 3.957194-1.521998 6.39239-1.521998 2.130797 0 4.565993 0.608799 6.696789 1.826397 2.130797 1.217598 3.957194 2.739596 5.174792 4.261593 1.217598 1.521998 2.130797 3.043995 2.739596 5.174792 0.608799 1.826397 0.608799 3.652794 0.608799 5.783591-0.3044 1.826397-0.608799 4.261593-0.913199 6.39239 5.174792-0.608799 9.436385-1.521998 13.08918-1.826397 3.348395-0.608799 7.609988-1.217598 12.78478-1.826397 2.130797-0.3044 3.957194-0.608799 5.174792-1.217598 1.217598-0.608799 2.435196-1.217598 3.348395-1.826397 0.913199-0.608799 1.521998-1.217598 2.130796-2.130797 0.608799-0.913199 1.217598-1.826397 1.521998-2.130797l2.435196 1.826398z m-52.661118-1.826398c-3.348395-1.826397-6.69679-2.435196-9.740784-1.521997-3.043995 0.913199-5.479191 3.043995-7.305589 6.696789l-3.652794 6.69679 24.047562 12.78478 2.739596-5.174792c1.826397-3.652794 2.435196-7.305589 1.521998-10.958383-1.217598-3.652794-3.652794-6.39239-7.609989-8.523187z m36.223544-52.356718c1.826397-0.913199 3.652794-1.521998 5.479191-1.521997 1.826397-0.3044 3.957194 0 6.087991 0.608799 5.479191 1.217598 9.436385 4.565993 11.871581 9.436385 2.435196 4.870392 3.043995 10.349584 1.217598 16.133175-0.608799 2.435196-1.826397 5.479191-3.348394 7.914387-1.521998 2.739596-3.348395 4.565993-4.870393 6.087991l2.739596 2.739596-0.913199 3.652794-21.003567-4.870392 0.913199-3.348395c2.739596 0 5.174792-0.3044 7.609988-0.913199 2.435196-0.3044 4.565993-0.913199 6.696789-2.130796 2.130797-1.217598 3.957194-2.739596 5.479192-4.261594 1.521998-1.826397 2.739596-3.957194 3.348395-6.696789 0.608799-1.826397 0.608799-3.957194 0.608799-5.479192 0-1.826397-0.608799-3.043995-1.217598-4.261593-0.608799-1.217598-1.826397-2.130797-2.739596-3.043995-1.217598-0.608799-2.739596-1.217598-4.261594-1.826398-2.435196-0.608799-4.870392-0.608799-7.305588 0.3044-2.435196 0.913199-4.565993 2.739596-6.39239 5.174792-1.217598 1.826397-2.739596 3.652794-4.261593 5.783591-1.521998 2.130797-3.043995 3.957194-4.261594 5.783591-2.435196 3.043995-5.174792 4.870392-8.218787 6.39239-3.043995 1.217598-6.69679 1.521998-10.653983 0.304399-2.435196-0.608799-4.261593-1.826397-6.39239-3.348394-1.826397-1.521998-3.043995-3.043995-4.261594-5.479192-1.217598-2.130797-1.826397-4.261593-2.130796-6.696789-0.3044-2.739596 0-5.174792 0.608799-7.609988 0.913199-2.739596 1.826397-5.174792 3.348394-7.305589 1.521998-2.130797 3.043995-3.957194 4.565993-5.174792l-2.739595-2.739596 0.913198-3.652794 20.394768 4.870392-0.913198 3.652795c-2.435196 0-4.870392 0-7.305589 0.304399-2.435196 0.3044-4.565993 0.608799-6.696789 1.521998-2.130797 0.913199-3.652794 2.130797-5.174792 3.652794s-2.435196 3.348395-3.348395 6.087991c-0.608799 2.739596-0.3044 5.479191 0.913198 7.609988 1.217598 2.435196 3.348395 3.957194 5.783591 4.565993 2.739596 0.608799 4.870392 0.608799 7.00119-0.3044 2.130797-0.608799 3.957194-2.130797 5.78359-4.261593 1.521998-1.826397 3.043995-3.652794 4.261594-5.479192 1.217598-1.826397 2.739596-3.652794 3.957194-5.174792s2.435196-3.043995 3.652794-4.261593c2.130797-0.608799 3.652794-1.826397 5.174792-2.739596z m37.745541-41.702735l-3.957194 28.309156-3.043995-0.304399c0-0.913199 0.3044-2.130797 0.304399-3.652795 0.3044-1.521998 0-2.435196 0-3.348394-0.3044-0.913199-0.608799-1.826397-1.217598-2.130797-0.608799-0.608799-1.521998-0.913199-2.739595-0.913199l-45.35553-6.08799h-2.435196c-0.608799 0.3044-1.521998 0.913199-2.130796 2.130797-0.3044 0.913199-0.913199 1.826397-1.521998 3.043995s-0.913199 2.435196-1.217598 3.348395l-3.043995-0.3044 3.957193-28.309156 3.043996 0.3044v3.348395c0 1.217598 0 2.435196 0.304399 3.348394 0.3044 0.913199 0.608799 1.826397 1.521998 2.435197 0.608799 0.608799 1.521998 0.913199 2.435196 0.913198l45.355529 6.39239c0.913199 0.3044 1.826397 0 2.739596-0.304399 0.913199-0.3044 1.521998-0.913199 2.130796-2.130797 0.3044-0.608799 0.913199-1.521998 1.217599-2.739596 0.608799-1.521998 0.913199-2.739596 0.913198-3.652794l2.739596 0.304399z m-40.180737-75.186682l-0.3044 3.043995c-1.217598 0.3044-2.435196 0.608799-3.957194 1.521998-1.521998 0.608799-3.043995 1.521998-4.261593 2.130796-1.217598 0.913199-2.435196 1.826397-3.652794 3.043996-1.217598 0.913199-1.826397 1.826397-1.826397 3.043995-0.3044 0.913199-0.3044 2.130797-0.6088 3.348395 0 1.521998-0.3044 2.739596-0.304399 3.957194l-0.3044 2.739595 50.530321 1.826397c0.913199 0 1.826397 0 2.739596-0.608799 0.913199-0.3044 1.521998-1.217598 1.826397-2.130796 0.3044-0.608799 0.608799-1.521998 1.217598-3.348395 0.3044-1.826397 0.608799-3.043995 0.608799-3.957194h3.043996l-1.217598 29.831153-3.043996-0.304399c0-0.608799-0.3044-2.130797-0.304399-3.957194 0-1.826397-0.3044-2.739596-0.608799-3.652794-0.3044-0.913199-0.913199-1.826397-1.521998-2.130797-0.608799-0.608799-1.826397-0.608799-3.043995-0.913198l-50.834721-1.826398v10.045185c0 0.913199 0.608799 2.130797 1.521998 3.348395 0.913199 0.913199 2.130797 2.130797 3.348395 3.043995 1.217598 0.913199 2.739596 1.826397 4.261593 2.739596 1.521998 0.608799 2.739596 1.217598 3.652794 1.521997l-0.304399 3.043995-17.046373-0.608799 2.130796-55.096314 18.263972 0.3044z m-13.08918-69.098692c0 0.3044 0.3044 1.217598 0.608799 2.435196 0.608799 0.913199 0.913199 1.826397 1.217598 2.435196 0.608799 1.217598 1.217598 1.826397 1.521998 2.435196 0.3044 0.3044 1.521998 1.217598 3.043995 2.435197 3.348395 2.435196 6.69679 4.565993 9.740785 6.696789 3.348395 1.826397 7.609988 4.261593 12.48038 7.305589 1.826397 1.217598 3.348395 2.130797 4.565993 2.130796 1.217598 0.608799 2.739596 0.608799 4.870393 0.6088l12.175981 0.304399c1.217598 0 2.130797-0.3044 3.043995-0.608799 0.608799-0.3044 1.217598-1.217598 1.826397-2.130797 0.3044-0.608799 0.608799-1.826397 0.913199-3.348394 0.3044-1.521998 0.608799-2.739596 0.608799-3.652795h3.348394l-0.608799 29.526754-3.043995-0.304399c0-0.913199-0.3044-1.826397-0.304399-3.652795 0-1.521998-0.3044-2.739596-0.608799-3.348394-0.3044-1.217598-1.217598-1.826397-1.826398-2.130797-0.913199-0.608799-1.826397-0.608799-3.043995-0.608799l-15.524376-0.3044c-0.608799-0.3044-1.217598 0.3044-2.739595 0.608799-1.217598 0.608799-2.739596 1.217598-4.261594 1.826398-3.652794 1.826397-7.305589 3.652794-11.262782 5.78359-3.957194 2.130797-7.609988 3.957194-10.349584 5.479192-1.826397 0.913199-3.043995 1.521998-3.957194 2.739596-0.913199 0.608799-1.521998 1.521998-2.435196 2.435196-0.3044 0.608799-0.913199 1.521998-0.913198 2.739596-0.3044 0.913199-0.608799 1.826397-0.6088 2.739595h-3.043995l0.3044-27.091557h3.348395c0 3.043995 0 5.174792 0.608799 6.696789 0.3044 1.217598 0.913199 1.826397 1.521997 1.826397 0.3044 0 0.608799 0 0.913199-0.304399 0.608799-0.3044 1.217598-0.608799 1.826397-0.608799 0.913199-0.3044 1.826397-0.913199 2.739596-1.521998 0.913199-0.608799 2.130797-0.913199 3.043995-1.521998 2.739596-1.217598 5.479191-2.739596 7.914388-4.261593 2.739596-1.217598 6.08799-3.348395 10.349583-5.479191-7.305589-4.565993-13.08918-8.523187-17.350773-10.958383-3.957194-2.435196-6.69679-3.652794-7.305588-3.652794-0.608799 0-1.217598 0.3044-1.826397 0.608799-0.3044 0.3044-0.608799 0.913199-0.913199 1.826397-0.3044 0.913199-0.608799 1.826397-0.608799 2.739595 0 0.913199 0 2.130797-0.304399 2.739596h-3.348395l0.608799-21.916766 3.043995 0.3044z m-314.140309 261.479191c-2.435196 0-4.261593 0.913199-6.087991 3.043996-1.826397 1.826397-2.739596 4.261593-2.739595 7.305588 0 2.739596 0.913199 4.870392 2.435196 6.69679 1.521998 1.826397 3.652794 2.435196 6.08799 2.435196s4.261593-0.913199 6.087991-2.435196c1.521998-1.826397 2.435196-4.261593 2.435196-7.001189 0-3.043995-0.608799-5.479191-2.435196-7.001189-1.521998-2.130797-3.348395-3.043995-5.783591-3.043996z m40.180737 0c-2.130797 0-4.261593 0.913199-5.783591 3.043996-1.826397 2.435196-2.739596 7.305589-2.739596 14.611177 0 7.001189 0.913199 11.567182 2.435197 14.002378 1.826397 2.435196 3.652794 3.652794 6.08799 3.652794s4.261593-1.217598 6.087991-3.652794c1.521998-2.435196 2.435196-7.001189 2.435196-14.002378s-0.913199-11.871581-2.435196-14.002378c-1.826397-2.435196-3.652794-3.652794-6.087991-3.652795z" p-id="10219"></path><path d="M764.619941 305.617122h-505.30321c-0.608799 0-0.608799 0.913199-0.913199 1.521998-0.608799 64.837099 0.3044 131.804994 0 195.120095-0.608799 63.9239 8.827586 122.064209 29.526754 167.419739 20.394768 45.05113 53.878716 77.621879 91.928656 104.713436 38.65874 27.395957 87.058264 42.311534 131.804994 65.141498 44.442331-23.134364 92.841855-37.745541 131.196195-65.750297 38.049941-27.395957 72.447087-59.053508 92.537456-104.713436 20.090369-45.659929 29.222354-101.973841 29.222354-168.028538 0.3044-63.619501 0.913199-131.196195 0-195.424495zM375.292949 592.361474c34.397146-17.959572 68.794293-37.441141 95.581451-63.315101-17.959572 4.261593-31.96195 4.870392-46.877527 4.565993 2.435196-3.957194 6.39239-6.39239 9.740785-9.436385 22.525565-21.307967 48.095125-41.398335 60.271106-73.664685-8.218787 2.739596-18.872771 5.174792-30.135553 5.174792 22.221165-28.309156 39.571938-61.488704 48.703924-102.58264h1.217598c9.131986 41.093936 26.787158 73.969084 48.703924 102.58264-9.740785-0.608799-18.263971-0.913199-29.526754-5.479191 0.608799 4.870392 3.043995 9.436385 5.174792 13.393579 10.958383 20.090369 28.613555 35.919144 44.74673 51.443519 6.69679 6.08799 13.697979 11.567182 19.48157 18.568371-18.263971 1.521998-26.482759 0.3044-46.268728-5.174792 6.39239 7.609988 14.915577 13.393579 22.829964 19.48157 21.307967 17.350773 46.877527 30.439952 72.751487 44.137931 2.130797 0.913199 5.174792 1.826397 6.08799 4.565993-21.307967 3.043995-45.05113 1.521998-68.185493-6.087991-28.309156-9.740785-54.791914-10.349584-74.577884 8.218787-21.916766-17.655172-43.833532-17.959572-79.143876-8.523186-20.090369 6.39239-46.268728 9.131986-67.576695 6.39239 1.217598-2.739596 4.565993-3.043995 7.001189-4.261594z m77.926279 168.637337h-5.174792v-33.483948c-1.217598 1.521998-3.043995 2.435196-5.174792 3.348395-1.826397 1.217598-3.652794 2.130797-5.479192 3.043995v-4.870392c3.043995-1.521998 5.479191-3.348395 7.609989-5.174792 2.130797-2.130797 3.652794-3.957194 4.565992-5.783591h3.348395l0.3044 42.920333z m46.877526-9.131986c-1.217598 3.348395-3.043995 5.783591-5.479191 7.305589-2.435196 1.826397-5.174792 2.739596-8.218787 2.739596-3.348395 0-6.08799-0.913199-8.218787-2.739596-2.130797-1.826397-3.348395-4.261593-3.957194-7.914388l4.870392-0.608799c0.608799 2.435196 1.521998 4.261593 2.739596 5.174792 1.217598 1.217598 2.739596 1.521998 4.565993 1.521998 1.521998 0 3.043995-0.3044 4.261593-1.217598 1.217598-0.608799 2.130797-1.826397 3.043995-3.043996 0.913199-1.217598 1.521998-3.043995 1.826398-4.870392 0.608799-2.130797 0.913199-4.261593 0.913198-6.39239v-1.217598c-0.913199 1.826397-2.435196 3.348395-4.261593 4.261593-1.826397 0.913199-3.957194 1.521998-5.783591 1.521998-3.652794 0-6.69679-1.521998-9.131986-3.957194-2.435196-2.739596-3.957194-6.08799-3.957194-10.349584s1.217598-7.914388 3.957194-10.349584c2.739596-2.739596 5.783591-3.957194 9.436385-3.957194 3.043995 0 5.479191 0.608799 7.914388 2.130797 2.130797 1.521998 3.957194 3.652794 5.479191 6.69679 0.913199 2.739596 1.826397 6.69679 1.826398 11.871581 0 5.783591-0.913199 10.045184-1.826398 13.393579z m40.180738 0.3044c-0.913199 3.043995-2.435196 5.479191-4.565993 7.001189-2.130797 1.826397-4.565993 2.739596-7.914388 2.739596-4.261593 0-7.305589-1.521998-9.740785-4.565993-2.739596-3.348395-4.261593-9.436385-4.261593-17.350773 0-5.174792 0.608799-9.131986 1.521998-12.175981 1.217598-3.043995 2.739596-5.479191 4.565993-7.001189 2.130797-1.826397 4.565993-2.739596 7.914387-2.739596 2.435196 0 4.261593 0.3044 6.087991 1.217598 1.826397 0.913199 3.043995 2.130797 4.261593 3.957194 1.217598 1.826397 1.826397 3.957194 2.739596 6.39239 0.608799 2.435196 0.913199 5.783591 0.913198 10.045184 0 5.174792-0.608799 9.436385-1.521997 12.480381z m41.398335 8.827586h-28.309156c0-1.217598 0.3044-2.739596 0.608799-3.652794 0.608799-1.826397 1.826397-3.957194 3.652795-5.783591 1.521998-1.826397 3.957194-3.957194 6.696789-6.69679 4.565993-3.957194 7.609988-6.69679 9.436385-9.131986 1.521998-2.130797 2.435196-4.261593 2.435197-6.39239 0-2.130797-0.913199-3.957194-2.435197-5.174792-1.521998-1.521998-3.348395-2.130797-5.783591-2.130796-2.435196 0-4.565993 0.913199-6.08799 2.435196s-2.130797 3.652794-2.130797 6.087991l-5.479191-0.6088c0.608799-3.957194 1.826397-7.001189 4.261593-9.131985 2.435196-2.130797 5.783591-3.043995 9.740785-3.043996 4.261593 0 7.305589 0.913199 9.740785 3.348395 2.435196 2.435196 3.652794 5.174792 3.652794 8.523187 0 1.521998-0.3044 3.348395-0.913199 5.174792-0.608799 1.521998-1.826397 3.348395-3.348394 5.174792-1.521998 1.826397-4.261593 4.261593-8.218788 7.305588-3.043995 2.739596-5.174792 4.565993-6.08799 5.479192-0.913199 0.913199-1.521998 1.826397-2.130797 3.043995h21.003568l-0.3044 5.174792z m-43.529132-119.324614l1.217598 11.262783h-49.008323l1.521997-11.262783H338.156207l19.177171-23.438763c16.133175-0.913199 47.790725-4.870392 74.577883-14.915577 52.356718-19.48157 84.014269 7.305589 84.014269 7.305589 24.960761-21.003567 56.313912-16.741974 85.536266-5.783591 27.395957 10.045184 69.098692 13.08918 69.098692 13.089179l17.959572 24.047563-150.373365-0.3044z" p-id="10220"></path></svg>