<?xml version="1.0" standalone="no"?><!DOCTYPE svg PUBLIC "-//W3C//DTD SVG 1.1//EN" "http://www.w3.org/Graphics/SVG/1.1/DTD/svg11.dtd"><svg t="1736587296690" class="icon" viewBox="0 0 1024 1024" version="1.1" xmlns="http://www.w3.org/2000/svg" p-id="9153" xmlns:xlink="http://www.w3.org/1999/xlink" width="200" height="200"><path d="M927.3 249.7c-11-40-29.9-73-56.3-98.1-54.1-51.5-141.3-71.5-245.6-56.3-73 10.6-149.8 38.3-216.4 77.9-72.2 43-128.3 97-162.3 156.3-18.5 32.3-23.6 54.2-30.8 84.5-7.8 33.4-18.6 79.1-54.7 170.7-13.5 34.3-25.3 61.6-35.7 85.7-15.1 34.9-26 60.2-31.7 83-7 28.2-5.7 51.4 4.4 75.2 20.1 47.4 67.9 80.3 142.2 98 50.7 12 100 13.5 118.8 13.6h1.5c158.2 0 271-86.7 331.7-133.3C750 762.7 846.3 688.7 897.6 554c8.5-22.4 36.6-102.4 40.4-192.7 2-41.4-1.7-78.9-10.7-111.6z m-59 108.6c-3.4 79.8-28.3 150.9-35.9 170.7C788.1 645.2 705 709.1 649.9 751.3 592 795.8 495.3 870.1 360.8 870.1h-1.3c-16.4-0.1-59.3-1.3-102.9-11.7-35.4-8.4-80.3-25.1-93.9-57.2-8.2-19.4-0.1-40.2 27.1-103.1 10.1-23.4 22.7-52.5 36.6-87.8 38-96.2 49.9-146.9 57.7-180.3 6.6-28.1 9.9-42.3 23.3-65.7 56-97.7 190.9-179.8 328-199.8 81.4-11.9 149.6 1.9 187.3 37.7 41.5 39.5 47.7 106.7 45.6 156.1z" p-id="9154"></path><path d="M352.6 505.8c-14.8 3.9-25.5 16.9-26.1 32.1-1 24.5-9.4 56.7-24.6 93.7-7.5 18.4-15.6 35.1-22.4 48.2-8.4 16.3-2.7 36.4 13 45.9h0.1c17.3 10.5 39.9 4.1 49.2-13.9 7.4-14.4 16.2-32.6 24.5-52.8 18.6-45.1 28.7-84.7 30.1-118.3 0.9-23.2-21.2-40.8-43.8-34.9z" p-id="9155"></path></svg>