<?xml version="1.0" standalone="no"?><!DOCTYPE svg PUBLIC "-//W3C//DTD SVG 1.1//EN" "http://www.w3.org/Graphics/SVG/1.1/DTD/svg11.dtd"><svg t="1736671967380" class="icon" viewBox="0 0 1024 1024" version="1.1" xmlns="http://www.w3.org/2000/svg" p-id="4310" xmlns:xlink="http://www.w3.org/1999/xlink" width="200" height="200"><path d="M509.44 285.184c108.032 0 196.608 88.576 196.608 196.096 0 11.776-1.024 23.04-3.072 34.304-11.264-8.192-23.04-14.848-35.84-20.48 0.512-4.608 0.512-9.216 0.512-13.824 0-86.016-71.68-157.696-158.208-157.696S351.232 395.264 351.232 481.28c0 5.12 0.512 10.752 1.024 15.872-12.8 6.144-24.576 13.312-35.328 21.504-2.56-12.288-3.584-25.088-3.584-37.376-0.512-107.52 88.576-196.096 196.096-196.096z m335.872 172.032v43.008h-79.36v-43.008h79.36z m-587.264-2.56v43.008H178.688v-43.008h79.36z m474.624-226.816l31.232 31.232-55.296 54.784-31.232-31.232 55.296-54.784z m-441.344 0l55.296 54.784-31.232 31.232-55.296-55.296 31.232-30.72z m242.176-83.968v78.848h-43.008V143.872h43.008z" p-id="4311"></path><path d="M633.856 520.192c-4.096-15.872-11.776-28.672-22.016-38.912-21.504-20.48-55.808-28.16-96.768-22.016-28.672 4.096-58.88 15.36-85.504 30.72-28.672 16.896-50.688 38.4-64 61.44-7.168 12.8-9.216 21.504-12.288 33.28-3.072 13.312-7.168 31.232-21.504 67.584-5.12 13.312-9.728 24.064-14.336 33.792-6.144 13.824-10.24 23.552-12.288 32.768-2.56 11.264-2.048 20.48 1.536 29.696 7.68 18.944 26.624 31.744 56.32 38.912 19.968 4.608 39.424 5.12 47.104 5.12h0.512c62.464 0 107.008-34.304 131.072-52.736 22.528-17.408 60.928-46.592 80.896-99.84 3.584-8.704 14.336-40.448 15.872-75.776 0-16.384-1.536-30.72-4.608-44.032z m-23.552 43.008c-1.536 31.232-11.264 59.392-14.336 67.584-17.408 46.08-50.176 71.168-72.192 87.552-22.528 17.408-60.416 46.592-113.664 46.592H409.6c-6.656 0-23.552-0.512-40.448-4.608-13.824-3.072-31.744-9.728-36.864-22.528-3.072-7.68 0-15.872 10.752-40.448 4.096-9.216 8.704-20.48 14.336-34.816 14.848-37.888 19.456-57.856 22.528-71.168 2.56-11.264 4.096-16.896 9.216-26.112 22.016-38.4 75.264-71.168 129.536-78.848 32.256-4.608 58.88 0.512 73.728 14.848 16.384 15.872 18.944 42.496 17.92 61.952z" p-id="4312"></path><path d="M407.04 621.568c-5.632 1.536-10.24 6.656-10.24 12.8-0.512 9.728-3.584 22.528-9.728 36.864-3.072 7.168-6.144 13.824-8.704 18.944-3.072 6.656-1.024 14.336 5.12 17.92 6.656 4.096 15.872 1.536 19.456-5.632 3.072-5.632 6.144-12.8 9.728-20.992 7.168-17.92 11.264-33.28 11.776-46.592 0-8.704-8.704-15.872-17.408-13.312z" p-id="4313"></path></svg>